<svg id="Layer_1" data-name="Layer 1" xmlns="http://www.w3.org/2000/svg" viewBox="0 0 312.33 83.5"><defs><style>.cls-1{fill:#0c092a;}</style></defs><path class="cls-1" d="M12.25,22.81C23.08,12.72,40.78,12,53,19.85c9.34,6.17,13.44,18,12.9,28.88.29,11.45-4.91,23.77-15.52,29,5.08,2.61,8.46,7.59,10.44,12.85,1.67,5.86-6.59,9.6-10.81,6.15-4.48-4.14-5.63-11-10.77-14.54-6-1.06-12.38-.39-18-3.06-10.81-4-17.49-15.5-18-26.83C2.21,41.79,4.59,30.39,12.25,22.81Zm14.49,4.74c-6,2.89-8.78,9.73-9.24,16.1-.6,7.1-.19,15,4.28,20.88C28.54,73.29,44.26,72,49,61.77a33.64,33.64,0,0,0-.24-28C44.78,25.93,34.2,23.9,26.74,27.55Z" transform="translate(-3 -14.51)"/><path class="cls-1" d="M183.72,39.7c8.21-7.56,22.72-7.66,30.16,1.06,4.05,4.47,5.4,10.76,5.11,16.68,0,2.25-2.61,3.53-4.56,3.21-8.31.13-16.62-.14-24.93.13.93,3.8,2.43,8.36,6.63,9.5,6.89,2.62,13.39-2.1,20-3.58,1.68,2,3.26,4.49,2.65,7.33-2.48,4.67-8.11,5.72-12.76,6.82-9.79,2.14-21.54-1.16-26.62-10.43C174.27,60.75,175.52,47.3,183.72,39.7Zm5.83,13.69q9,.22,18.08,0c-.58-4.46-2.91-10-8.27-9.55C193.79,43.1,190.25,48.48,189.55,53.39Z" transform="translate(-3 -14.51)"/><path class="cls-1" d="M75.62,40.27c-.2-7.11,11.81-8.22,13.44-1.59.75,8.87-.58,17.87.67,26.71.52,6,8.81,6.45,12.31,2.92,4-3,3.18-8.5,3.31-12.92.07-5.57-.35-11.13.22-16.68,1.6-6.61,13.66-5.63,13.42,1.55.05,12.2.39,24.44-.16,36.63-2.23,6.81-13.43,5.31-13.63-2.12-6.49,10.46-25.73,8.56-28.59-4C74.56,60.8,75.84,50.43,75.62,40.27Z" transform="translate(-3 -14.51)"/><path class="cls-1" d="M131.32,43.91c5.65-9,18-12.18,27.43-7.92,8.36,3.73,12.84,13.92,11.13,22.76-.54.44-1.6,1.34-2.12,1.78-9,.42-18-.08-27,.25.92,3.4,1.85,7.5,5.36,9.1,6.8,3.24,13.88-.83,20.19-3.3,4.05,2,5.38,7.94,1.11,10.48-11.07,6.7-28.11,6.35-36-5.13A27.36,27.36,0,0,1,131.32,43.91Zm9.21,9.46c6.11.18,12.22.18,18.35.07-.4-5.08-4-10.68-9.71-9.6C144,43.85,141.65,49.08,140.53,53.37Z" transform="translate(-3 -14.51)"/><path class="cls-1" d="M227.67,45.6c-5.53-.42-5.46-9.66-.07-10.1,10.51-.77,21.12-.44,31.67-.2,4.94.2,7.37,7,3.73,10.37C255.94,54,248.59,62,241.36,70.18c7.06.15,14.14-.35,21.19.25,4,.94,5,6.51,2.05,9.13-2.64,1.43-5.72,1-8.56,1.13-8.93-.29-17.86.16-26.77-.21-4.75-.13-7.06-6.84-3.56-10.06,7-8.38,14.5-16.38,21.7-24.63C240.83,45.67,234.23,46.09,227.67,45.6Z" transform="translate(-3 -14.51)"/><path class="cls-1" d="M268.06,42.12c-2.43-7.06,9.19-10.84,12.13-4.38,4.24,8.35,7.59,17.18,11.94,25.5,3.61-8.61,7.34-17.18,11.32-25.62,2.75-6.26,14-2.24,11.53,4.4-8.35,17.6-16.76,35.15-25.38,52.6-2.52,5.4-11.2,3.63-11.83-2.15.65-6,5.7-10.49,6.25-16.36C279.27,64.51,272.81,53.71,268.06,42.12Z" transform="translate(-3 -14.51)"/></svg>