<svg id="Layer_1" data-name="Layer 1" xmlns="http://www.w3.org/2000/svg" viewBox="0 0 315.33 84.3"><defs><style>.cls-1{fill:#fff;}</style></defs><path class="cls-1" d="M12.34,22.09c10.93-10.19,28.8-11,41.15-3,9.43,6.23,13.57,18.14,13,29.16.28,11.55-5,24-15.67,29.24,5.12,2.63,8.54,7.65,10.54,13,1.68,5.92-6.66,9.69-10.91,6.21C46,92.5,44.79,85.53,39.6,82c-6.06-1.07-12.5-.39-18.22-3.09C10.47,74.82,3.73,63.26,3.22,51.82,2.2,41.25,4.6,29.74,12.34,22.09ZM27,26.87c-6.06,2.92-8.86,9.83-9.34,16.26C17,50.29,17.45,58.29,22,64.21c6.82,8.84,22.7,7.55,27.49-2.78a34,34,0,0,0-.24-28.24C45.18,25.24,34.5,23.19,27,26.87Z" transform="translate(-3 -13.71)"/><path class="cls-1" d="M185.45,39.14c8.29-7.64,22.94-7.74,30.46,1.07,4.08,4.52,5.44,10.86,5.16,16.84,0,2.27-2.64,3.56-4.61,3.24-8.39.14-16.78-.14-25.17.14.94,3.83,2.45,8.43,6.69,9.58,7,2.65,13.52-2.12,20.15-3.61,1.69,2.07,3.29,4.53,2.67,7.4-2.51,4.72-8.19,5.77-12.88,6.89-9.89,2.16-21.74-1.17-26.87-10.54C175.92,60.39,177.18,46.81,185.45,39.14ZM191.34,53q9.14.23,18.26,0c-.59-4.5-2.94-10.08-8.36-9.64C195.63,42.57,192,48,191.34,53Z" transform="translate(-3 -13.71)"/><path class="cls-1" d="M76.32,39.72c-.2-7.18,11.92-8.3,13.57-1.61.76,9-.59,18,.67,27,.52,6,8.9,6.51,12.43,3C107,65,106.2,59.44,106.34,55c.06-5.62-.36-11.24.21-16.84,1.62-6.67,13.79-5.68,13.56,1.56,0,12.32.38,24.68-.17,37-2.25,6.88-13.55,5.37-13.76-2.13-6.55,10.55-26,8.63-28.87-4C75.24,60.44,76.54,50,76.32,39.72Z" transform="translate(-3 -13.71)"/><path class="cls-1" d="M132.55,43.39c5.7-9,18.13-12.29,27.7-8,8.44,3.77,13,14,11.23,23-.54.44-1.62,1.36-2.14,1.8-9.09.42-18.19-.08-27.29.26.93,3.42,1.87,7.56,5.42,9.18,6.86,3.27,14-.83,20.38-3.33,4.08,2,5.43,8,1.12,10.57-11.18,6.78-28.38,6.42-36.37-5.17A27.62,27.62,0,0,1,132.55,43.39Zm9.3,9.55c6.17.19,12.34.19,18.53.07-.4-5.13-4-10.78-9.8-9.69C145.38,43.33,143,48.61,141.85,52.94Z" transform="translate(-3 -13.71)"/><path class="cls-1" d="M229.83,45.1c-5.58-.42-5.52-9.76-.07-10.2,10.61-.78,21.32-.44,32-.2,5,.2,7.45,7.07,3.76,10.47-7.13,8.38-14.54,16.51-21.84,24.74,7.13.16,14.28-.35,21.39.26,4,1,5,6.57,2.07,9.21-2.66,1.45-5.77,1-8.64,1.14-9-.29-18,.17-27-.2-4.79-.14-7.13-6.91-3.6-10.17,7.1-8.45,14.65-16.53,21.92-24.86C243.11,45.17,236.45,45.59,229.83,45.1Z" transform="translate(-3 -13.71)"/><path class="cls-1" d="M270.61,41.59c-2.46-7.13,9.28-11,12.24-4.43,4.29,8.43,7.67,17.34,12,25.74,3.65-8.69,7.42-17.34,11.44-25.86,2.77-6.32,14.14-2.26,11.64,4.44C309.55,59.25,301.06,77,292.35,94.59c-2.54,5.45-11.3,3.67-11.94-2.17.66-6,5.75-10.59,6.31-16.52C281.92,64.19,275.4,53.28,270.61,41.59Z" transform="translate(-3 -13.71)"/></svg>