<svg id="Layer_1" data-name="Layer 1" xmlns="http://www.w3.org/2000/svg" viewBox="0 0 314.64 82.45"><defs><style>.cls-1{fill:#fff;}.cls-2{fill:#6a5ae0;}.cls-3{fill:#0c092a;}.cls-4{fill:#fe8fa2;}.cls-5{fill:#c4d0fb;}.cls-6{fill:#9087e5;}</style></defs><path class="cls-1" d="M13.29,17.88c4.07-2.26,8.9-1.79,13.36-1.85,14.39.27,28.78-.39,43.16.31,5.84,2.26,11.24,6.5,13.52,12.5,1.23,4.67.67,9.56.75,14.34.07,9.71-.3,19.44.32,29.15a20,20,0,0,1-7,13c-4.19,3.74-10,4.8-15.44,4.75C50.5,90,39,90,27.56,90c-5.06,0-10.42.08-14.95-2.51A19.65,19.65,0,0,1,3.59,77a67.59,67.59,0,0,1-1.32-14.6c0-9.66-.13-19.34.45-29C2.92,26.75,7.61,21,13.29,17.88Zm10.19,20C18.8,46.26,21.62,57.82,29.67,63c4.93,3.55,11.24,4.07,17.08,3.11,2.11,2.9,6.9,4.59,9.39,1.21,3.17-4.31-1.92-8.8-5.64-10.42-4.1-.34-7.89,3-12.06,1.48-7.24-1.33-11.6-10.22-8-16.71C33.66,35,43.54,33.05,49,38.17c3.22,2.52,4.26,6.63,4.16,10.53-.21,2.93,3,6.13,5.88,4.45,2-1,1.89-3.6,2.07-5.54.44-8.34-5.3-16.32-13.1-19C39,25.13,27.82,29.29,23.48,37.91Zm34,31.82A4.8,4.8,0,0,0,57,76.79c2.58,3.36,8.85,1.16,8.57-3.12C66.08,69.49,60.37,66.89,57.44,69.73Z" transform="translate(-2 -16)"/><path class="cls-2" d="M23.48,37.91C27.82,29.29,39,25.13,48,28.58c7.8,2.71,13.54,10.69,13.1,19-.18,1.94,0,4.51-2.07,5.54-2.88,1.68-6.09-1.52-5.88-4.45.1-3.9-.94-8-4.16-10.53C43.54,33.05,33.66,35,30.43,41.69c-3.59,6.49.77,15.38,8,16.71,4.17,1.51,8-1.82,12.06-1.48,3.72,1.62,8.81,6.11,5.64,10.42-2.49,3.38-7.28,1.69-9.39-1.21-5.84,1-12.15.44-17.08-3.11C21.62,57.82,18.8,46.26,23.48,37.91Z" transform="translate(-2 -16)"/><path class="cls-2" d="M57.44,69.73c2.93-2.84,8.64-.24,8.1,3.94.28,4.28-6,6.48-8.57,3.12A4.8,4.8,0,0,1,57.44,69.73Z" transform="translate(-2 -16)"/><path class="cls-3" d="M119.48,39.54c7-6.5,18.56-7,26.51-1.91,6.08,4,8.74,11.59,8.4,18.62.18,7.38-3.2,15.32-10.1,18.67,3.3,1.68,5.5,4.88,6.79,8.27,1.08,3.79-4.29,6.19-7,4-2.92-2.67-3.66-7.12-7-9.37-3.9-.68-8-.25-11.74-2-7-2.62-11.37-10-11.7-17.3C112.94,51.77,114.49,44.43,119.48,39.54Zm9.42,3.06c-3.9,1.86-5.71,6.27-6,10.38-.39,4.57-.12,9.67,2.78,13.45,4.4,5.65,14.63,4.82,17.72-1.77a21.51,21.51,0,0,0-.15-18C140.64,41.56,133.76,40.24,128.9,42.6Z" transform="translate(-2 -16)"/><path class="cls-3" d="M231,50.43c5.34-4.88,14.78-4.94,19.62.68,2.64,2.88,3.51,6.94,3.33,10.75,0,1.45-1.7,2.28-3,2.07-5.41.09-10.81-.09-16.22.09.61,2.45,1.58,5.38,4.31,6.12,4.49,1.69,8.71-1.36,13-2.31,1.1,1.32,2.13,2.89,1.73,4.72-1.62,3-5.28,3.69-8.3,4.4-6.37,1.38-14-.74-17.32-6.73C224.88,64,225.69,55.33,231,50.43Zm3.79,8.82q5.9.15,11.77,0c-.38-2.87-1.9-6.44-5.38-6.16C237.58,52.62,235.27,56.09,234.81,59.25Z" transform="translate(-2 -16)"/><path class="cls-3" d="M160.7,50.8c-.13-4.59,7.68-5.3,8.75-1,.48,5.72-.38,11.52.43,17.22.34,3.83,5.73,4.16,8,1.88,2.61-2,2.07-5.48,2.15-8.33.05-3.59-.22-7.17.14-10.75,1-4.26,8.89-3.63,8.74,1,0,7.86.25,15.75-.11,23.61-1.45,4.38-8.73,3.42-8.86-1.37-4.23,6.74-16.74,5.52-18.61-2.56C160,64,160.84,57.34,160.7,50.8Z" transform="translate(-2 -16)"/><path class="cls-3" d="M196.93,53.14c3.68-5.78,11.68-7.85,17.85-5.11,5.44,2.41,8.35,9,7.24,14.68l-1.38,1.14c-5.86.27-11.72-.05-17.58.17.59,2.19,1.2,4.83,3.49,5.86,4.42,2.09,9-.53,13.13-2.13,2.63,1.26,3.5,5.12.72,6.75-7.2,4.33-18.29,4.1-23.43-3.3A17.51,17.51,0,0,1,196.93,53.14Zm6,6.1c4,.12,7.95.12,11.94,0-.26-3.27-2.58-6.88-6.32-6.19C205.2,53.11,203.65,56.48,202.93,59.24Z" transform="translate(-2 -16)"/><path class="cls-3" d="M259.62,54.23c-3.6-.27-3.56-6.23-.05-6.51,6.84-.5,13.74-.28,20.6-.13a4,4,0,0,1,2.43,6.69c-4.6,5.35-9.38,10.54-14.08,15.79,4.6.1,9.2-.22,13.78.17,2.58.6,3.24,4.19,1.34,5.88-1.72.92-3.72.64-5.57.73-5.81-.19-11.62.1-17.41-.14-3.09-.08-4.6-4.4-2.32-6.49,4.57-5.39,9.43-10.55,14.11-15.87C268.17,54.28,263.88,54.55,259.62,54.23Z" transform="translate(-2 -16)"/><path class="cls-3" d="M285.89,52c-1.58-4.55,6-7,7.89-2.83,2.76,5.39,4.94,11.07,7.77,16.44,2.35-5.55,4.77-11.08,7.36-16.51,1.79-4,9.12-1.45,7.5,2.83C311,63.27,305.51,74.58,299.9,85.83c-1.64,3.48-7.28,2.34-7.69-1.39.42-3.84,3.7-6.76,4.06-10.54C293.18,66.42,289,59.45,285.89,52Z" transform="translate(-2 -16)"/><path class="cls-4" d="M84.4,72.33c.16,3.67.49,7.42-.49,11A19.63,19.63,0,0,1,66.8,98c-3.56.27-7.13.12-10.69.14q3.07-3.93,5.85-8.07c5.46,0,11.25-1,15.44-4.75A20,20,0,0,0,84.4,72.33Z" transform="translate(-2 -16)"/><path class="cls-5" d="M2,74.67c.54.78,1.07,1.56,1.59,2.36a19.65,19.65,0,0,0,9,10.49c4.53,2.59,9.89,2.5,15,2.51-1.61,2.81-3.24,5.62-4.86,8.42-5.1-.68-10.46-1.76-14.19-5.61C3.3,88.35,1.94,81.23,2,74.67Z" transform="translate(-2 -16)"/><path class="cls-6" d="M27.56,90C39,90,50.5,90,62,90.09q-2.77,4.14-5.85,8.07c-11.14.17-22.3-.36-33.41.29C24.32,95.65,26,92.84,27.56,90Z" transform="translate(-2 -16)"/></svg>