<svg id="Layer_1" data-name="Layer 1" xmlns="http://www.w3.org/2000/svg" viewBox="0 0 315 82.54"><defs><style>.cls-1{fill:#0c092a;}.cls-2{fill:#fff;}.cls-3{fill:#fe8fa2;}.cls-4{fill:#c4d0fb;}.cls-5{fill:#9087e5;}</style></defs><path class="cls-1" d="M13.31,17.79c4.06-2.27,8.9-1.79,13.37-1.86,14.4.28,28.81-.39,43.2.32,5.85,2.26,11.26,6.51,13.54,12.51,1.24,4.67.67,9.57.75,14.36.08,9.72-.29,19.46.33,29.18a20,20,0,0,1-7,13c-4.2,3.75-10,4.81-15.46,4.76C50.55,90,39.07,90,27.59,90c-5.06,0-10.43.08-15-2.51A19.65,19.65,0,0,1,3.6,77,67,67,0,0,1,2.27,62.39c0-9.67-.13-19.36.45-29C2.92,26.67,7.62,20.91,13.31,17.79ZM23.5,37.85C18.82,46.2,21.65,57.77,29.71,63,34.64,66.54,41,67.06,46.8,66.09c2.12,2.91,6.91,4.6,9.41,1.22,3.16-4.32-1.93-8.81-5.66-10.44-4.1-.33-7.89,3-12.07,1.49-7.24-1.34-11.62-10.24-8-16.74C33.7,34.91,43.59,33,49,38.11c3.22,2.51,4.26,6.62,4.16,10.53-.22,2.94,3,6.14,5.88,4.46,2.05-1,1.9-3.6,2.07-5.55.45-8.35-5.3-16.33-13.11-19C39.05,25.05,27.85,29.21,23.5,37.85Zm34,31.84A4.81,4.81,0,0,0,57,76.77c2.58,3.36,8.86,1.16,8.58-3.13C66.15,69.46,60.44,66.85,57.51,69.69Z" transform="translate(-2 -15.91)"/><path class="cls-2" d="M23.5,37.85C27.85,29.21,39.05,25.05,48,28.5c7.81,2.72,13.56,10.7,13.11,19-.17,2,0,4.52-2.07,5.55-2.87,1.68-6.1-1.52-5.88-4.46.1-3.91-.94-8-4.16-10.53C43.59,33,33.7,34.91,30.47,41.62c-3.61,6.5.77,15.4,8,16.74,4.18,1.51,8-1.82,12.07-1.49,3.73,1.63,8.82,6.12,5.66,10.44-2.5,3.38-7.29,1.69-9.41-1.22-5.85,1-12.16.45-17.09-3.11C21.65,57.77,18.82,46.2,23.5,37.85Z" transform="translate(-2 -15.91)"/><path class="cls-2" d="M57.51,69.69c2.93-2.84,8.64-.23,8.1,4,.28,4.29-6,6.49-8.58,3.13A4.81,4.81,0,0,1,57.51,69.69Z" transform="translate(-2 -15.91)"/><path class="cls-2" d="M119.61,39.47c7-6.51,18.58-7,26.54-1.91,6.09,4,8.76,11.6,8.41,18.64.18,7.39-3.2,15.34-10.11,18.69,3.31,1.68,5.51,4.89,6.8,8.29,1.08,3.78-4.3,6.19-7,4-2.92-2.67-3.67-7.13-7-9.39-3.9-.68-8.06-.25-11.75-2-7-2.61-11.39-10-11.71-17.31C113.07,51.72,114.62,44.37,119.61,39.47Zm9.44,3.06c-3.91,1.87-5.72,6.28-6,10.39-.4,4.58-.12,9.69,2.78,13.48,4.41,5.65,14.65,4.82,17.74-1.78a21.56,21.56,0,0,0-.15-18.05C140.79,41.49,133.91,40.18,129.05,42.53Z" transform="translate(-2 -15.91)"/><path class="cls-2" d="M231.28,50.37c5.35-4.88,14.8-4.94,19.65.69,2.63,2.88,3.51,6.94,3.33,10.76,0,1.45-1.71,2.28-3,2.07-5.41.09-10.82-.09-16.23.09.6,2.45,1.58,5.39,4.31,6.13,4.49,1.69,8.72-1.36,13-2.31,1.09,1.32,2.12,2.89,1.72,4.72-1.61,3-5.28,3.69-8.31,4.41-6.37,1.38-14-.75-17.33-6.74C225.13,64,225.94,55.28,231.28,50.37Zm3.8,8.83q5.88.15,11.78,0c-.38-2.87-1.9-6.44-5.39-6.16C237.84,52.57,235.53,56,235.08,59.2Z" transform="translate(-2 -15.91)"/><path class="cls-2" d="M160.88,50.74c-.13-4.58,7.69-5.3,8.76-1,.48,5.73-.38,11.53.43,17.24.34,3.84,5.74,4.16,8,1.89,2.61-2,2.07-5.49,2.15-8.34,0-3.6-.22-7.19.15-10.77,1-4.26,8.89-3.63,8.74,1,0,7.88.25,15.77-.11,23.64-1.45,4.39-8.74,3.43-8.87-1.37-4.23,6.75-16.76,5.52-18.63-2.56C160.19,64,161,57.3,160.88,50.74Z" transform="translate(-2 -15.91)"/><path class="cls-2" d="M197.16,53.09C200.83,47.3,208.85,45.23,215,48c5.45,2.41,8.36,9,7.25,14.68l-1.38,1.15c-5.87.28-11.74-.05-17.61.17.6,2.19,1.21,4.84,3.5,5.87,4.42,2.09,9-.54,13.14-2.13,2.64,1.26,3.51,5.12.73,6.76-7.21,4.33-18.31,4.1-23.46-3.31A17.5,17.5,0,0,1,197.16,53.09Zm6,6.1c4,.12,8,.12,12,.05-.26-3.28-2.58-6.89-6.33-6.2C205.43,53.05,203.88,56.43,203.15,59.19Z" transform="translate(-2 -15.91)"/><path class="cls-2" d="M259.91,54.18c-3.6-.27-3.56-6.24-.05-6.52,6.85-.5,13.76-.28,20.62-.13a4,4,0,0,1,2.43,6.7c-4.59,5.35-9.38,10.55-14.09,15.81,4.6.1,9.21-.23,13.8.16,2.58.61,3.25,4.2,1.34,5.89-1.72.93-3.72.64-5.58.73-5.81-.18-11.63.11-17.43-.13-3.09-.09-4.6-4.41-2.32-6.5,4.58-5.4,9.45-10.56,14.13-15.89C268.48,54.23,264.18,54.5,259.91,54.18Z" transform="translate(-2 -15.91)"/><path class="cls-2" d="M286.21,51.94c-1.58-4.56,6-7,7.9-2.83,2.77,5.39,4.95,11.08,7.78,16.45,2.35-5.55,4.78-11.08,7.37-16.53,1.79-4,9.13-1.44,7.51,2.84-5.44,11.36-10.91,22.68-16.53,33.94-1.64,3.48-7.29,2.35-7.7-1.39.42-3.84,3.71-6.76,4.06-10.55C293.51,66.39,289.3,59.41,286.21,51.94Z" transform="translate(-2 -15.91)"/><path class="cls-3" d="M84.5,72.3c.16,3.67.48,7.43-.49,11A19.68,19.68,0,0,1,66.87,98c-3.56.27-7.14.12-10.7.14q3.07-3.94,5.86-8.08c5.47,0,11.26-1,15.46-4.76A20,20,0,0,0,84.5,72.3Z" transform="translate(-2 -15.91)"/><path class="cls-4" d="M2,74.64c.54.78,1.08,1.56,1.6,2.36a19.65,19.65,0,0,0,9,10.51c4.54,2.59,9.91,2.5,15,2.51-1.62,2.81-3.24,5.63-4.87,8.43-5.1-.68-10.47-1.76-14.2-5.62C3.3,88.34,1.94,81.21,2,74.64Z" transform="translate(-2 -15.91)"/><path class="cls-5" d="M27.59,90c11.48,0,23-.07,34.44.06q-2.78,4.14-5.86,8.08c-11.15.17-22.32-.36-33.45.29C24.35,95.65,26,92.83,27.59,90Z" transform="translate(-2 -15.91)"/></svg>