<svg width="124" height="166" viewBox="0 0 124 166" fill="none" xmlns="http://www.w3.org/2000/svg"><path d="M24.618 155.88c.336.528.504 1.044.504 1.548 0 .648-.276 1.188-.828 1.62-.528.432-1.152.648-1.872.648a3.05 3.05 0 0 1-1.44-.36 2.726 2.726 0 0 1-1.044-1.044l-2.16-3.6a2.543 2.543 0 0 0-1.152-1.044c-.48-.216-1.128-.324-1.944-.324-2.52 0-4.716-.528-6.588-1.584-1.848-1.08-3.276-2.592-4.284-4.536-1.008-1.968-1.512-4.272-1.512-6.912 0-2.64.504-4.932 1.512-6.876 1.008-1.968 2.436-3.48 4.284-4.536 1.872-1.056 4.068-1.584 6.588-1.584 2.52 0 4.704.528 6.552 1.584 1.872 1.056 3.312 2.568 4.32 4.536 1.008 1.944 1.512 4.236 1.512 6.876 0 2.76-.552 5.148-1.656 7.164-1.08 1.992-2.628 3.48-4.644 4.464 1.176.36 2.124 1.128 2.844 2.304l1.008 1.656Zm-9.936-6.912c2.112 0 3.768-.744 4.968-2.232 1.224-1.488 1.836-3.636 1.836-6.444s-.6-4.944-1.8-6.408c-1.2-1.488-2.868-2.232-5.004-2.232-2.136 0-3.804.744-5.004 2.232-1.176 1.464-1.764 3.6-1.764 6.408 0 2.808.6 4.956 1.8 6.444 1.2 1.488 2.856 2.232 4.968 2.232Zm30.172-14.004c.84 0 1.5.228 1.98.684.504.456.756 1.08.756 1.872v13.212c0 .744-.264 1.344-.792 1.8-.504.456-1.164.684-1.98.684-.768 0-1.38-.216-1.836-.648-.456-.432-.684-1.008-.684-1.728v-.36a5.56 5.56 0 0 1-2.196 2.088c-.888.48-1.896.72-3.024.72-2.232 0-3.9-.612-5.004-1.836-1.08-1.248-1.62-3.12-1.62-5.616v-8.316c0-.792.24-1.416.72-1.872.504-.456 1.176-.684 2.016-.684.84 0 1.5.228 1.98.684.48.456.72 1.08.72 1.872v8.424c0 1.056.216 1.836.648 2.34.456.504 1.14.756 2.052.756 1.056 0 1.908-.36 2.556-1.08.672-.72 1.008-1.668 1.008-2.844v-7.596c0-.792.24-1.416.72-1.872.48-.456 1.14-.684 1.98-.684Zm20.73 12.78c.48 0 .865.192 1.153.576.312.384.468.876.468 1.476 0 .408-.12.792-.36 1.152-.24.336-.576.624-1.008.864-.816.432-1.764.792-2.844 1.08-1.08.264-2.076.396-2.988.396-1.92 0-3.6-.372-5.04-1.116-1.416-.744-2.508-1.8-3.276-3.168-.768-1.392-1.152-3.024-1.152-4.896 0-1.8.372-3.396 1.116-4.788.744-1.392 1.776-2.472 3.096-3.24 1.32-.792 2.82-1.188 4.5-1.188 1.608 0 3.012.36 4.212 1.08 1.224.696 2.172 1.704 2.844 3.024.672 1.296 1.008 2.82 1.008 4.572 0 .528-.132.936-.396 1.224-.24.264-.588.396-1.044.396h-10.08c.168 1.416.6 2.448 1.296 3.096.696.624 1.692.936 2.988.936.696 0 1.32-.084 1.872-.252a18.086 18.086 0 0 0 1.836-.684c.336-.144.66-.264.972-.36.312-.12.588-.18.828-.18Zm-6.191-9.108c-1.032 0-1.86.336-2.484 1.008-.624.648-.996 1.596-1.116 2.844h6.948c-.072-1.272-.396-2.232-.972-2.88-.552-.648-1.344-.972-2.376-.972Zm25.027 9.108c.48 0 .864.192 1.152.576.312.384.468.876.468 1.476 0 .408-.12.792-.36 1.152-.24.336-.576.624-1.008.864-.816.432-1.764.792-2.844 1.08-1.08.264-2.076.396-2.988.396-1.92 0-3.6-.372-5.04-1.116-1.416-.744-2.508-1.8-3.276-3.168-.768-1.392-1.152-3.024-1.152-4.896 0-1.8.372-3.396 1.116-4.788.744-1.392 1.776-2.472 3.096-3.24 1.32-.792 2.82-1.188 4.5-1.188 1.608 0 3.012.36 4.212 1.08 1.224.696 2.172 1.704 2.844 3.024.672 1.296 1.008 2.82 1.008 4.572 0 .528-.132.936-.396 1.224-.24.264-.588.396-1.044.396h-10.08c.168 1.416.6 2.448 1.296 3.096.696.624 1.692.936 2.988.936.696 0 1.32-.084 1.872-.252a18.086 18.086 0 0 0 1.836-.684c.336-.144.66-.264.972-.36.312-.12.588-.18.828-.18Zm-6.192-9.108c-1.032 0-1.86.336-2.484 1.008-.624.648-.996 1.596-1.116 2.844h6.948c-.072-1.272-.396-2.232-.972-2.88-.552-.648-1.344-.972-2.376-.972Zm23.635 10.296c1.632 0 2.448.684 2.448 2.052 0 1.344-.816 2.016-2.448 2.016H90.199c-.72 0-1.308-.228-1.764-.684-.456-.456-.684-.996-.684-1.62 0-.72.252-1.344.756-1.872l8.424-9.432H90.02c-1.632 0-2.448-.672-2.448-2.016 0-1.368.816-2.052 2.448-2.052h11.232c.744 0 1.332.228 1.764.684.456.456.684 1.008.684 1.656a2.62 2.62 0 0 1-.756 1.872l-8.388 9.396h7.308Zm16.557-12.42c.216-.504.516-.876.9-1.116.408-.24.84-.36 1.296-.36.696 0 1.308.228 1.836.684.528.432.792.96.792 1.584 0 .336-.084.672-.252 1.008l-9.684 19.872c-.24.504-.564.876-.972 1.116-.408.264-.84.396-1.296.396-.672 0-1.26-.216-1.764-.648-.504-.432-.756-.96-.756-1.584 0-.384.084-.744.252-1.08l2.376-4.932-6.408-13.14a2.463 2.463 0 0 1-.216-.972c0-.648.276-1.2.828-1.656a3.052 3.052 0 0 1 1.944-.684c.48 0 .924.132 1.332.396.408.24.732.612.972 1.116l4.464 9.72 4.356-9.72Z" fill="#fff"/><mask id="a" style="mask-type:alpha" maskUnits="userSpaceOnUse" x="12" y="0" width="100" height="100"><rect x="12" width="100" height="100" rx="24" fill="#6A5AE0"/></mask><g mask="url(#a)"><path d="M115.216 72.248c0 14.023-5.616 27.473-15.611 37.389-9.996 9.917-23.553 15.488-37.689 15.488-.729 0-1.444-.014-2.173-.041a54.282 54.282 0 0 1-11.526-1.719 65.386 65.386 0 0 0 2.159-1.133c.014 0 .028-.014.055-.027l.014-.014c.756-.409 1.5-.819 2.228-1.242.179-.109.358-.204.536-.3a63.684 63.684 0 0 0 2.05-1.255c.2-.107.392-.226.578-.355a37.647 37.647 0 0 0 1.554-.996 60.801 60.801 0 0 0 2.613-1.788c.344-.232.66-.464.99-.723.44-.3.867-.628 1.294-.955.385-.273.756-.56 1.128-.86a32.173 32.173 0 0 0 1.54-1.242c.22-.163.44-.341.66-.532.55-.45 1.087-.914 1.624-1.392.288-.245.577-.491.866-.764.316-.273.619-.546.922-.832.577-.519 1.141-1.065 1.705-1.61.076-.062.145-.13.207-.205a45.752 45.752 0 0 0 1.609-1.61c.371-.355.715-.724 1.045-1.092.4-.396.77-.805 1.142-1.214.22-.232.426-.464.619-.696.495-.546.977-1.106 1.458-1.665.248-.287.495-.587.729-.887.358-.41.701-.819 1.018-1.242.33-.396.646-.805.949-1.214.289-.355.564-.724.825-1.078.358-.464.702-.928 1.032-1.406.33-.478.688-.955 1.018-1.446a7.43 7.43 0 0 0 .454-.67c.467-.681.921-1.377 1.361-2.073a51.59 51.59 0 0 0 1.61-2.62c.233-.382.454-.764.674-1.147a87.528 87.528 0 0 0 4.759-9.66c.206-.465.399-.929.577-1.406.22-.505.413-1.024.606-1.542.165-.423.33-.86.481-1.297.179-.477.344-.968.509-1.446a78.557 78.557 0 0 0 1.637-5.295c.124-.45.247-.887.357-1.337.083-.286.152-.56.22-.846l.33-1.392c.44-1.897.812-3.807 1.129-5.745l.206-1.31c.027-.204.055-.395.082-.6.083-.519.152-1.037.207-1.556.096-.778.192-1.555.261-2.333.028-.205.041-.41.055-.614.055-.532.096-1.078.138-1.61.04-.533.068-1.092.096-1.638.027-.382.041-.764.055-1.16.055-1.255.082-2.51.082-3.766 0-.641 0-1.27-.027-1.897 0-.327 0-.641-.014-.969a90.724 90.724 0 0 0-.179-3.37v-.041a15.01 15.01 0 0 0-.055-.819c-.055-.75-.123-1.487-.192-2.238a.162.162 0 0 0-.014-.068 53.523 53.523 0 0 1 5.186 5.39l.041.041a.055.055 0 0 1 .014.027 52.414 52.414 0 0 1 12.186 33.665Z" fill="#FF8FA2"/><path d="M98.216 42.283a90.067 90.067 0 0 1-12.839 46.37 90.887 90.887 0 0 1-34.938 33.298.12.12 0 0 1-.069.041l-.014.014c-.714.382-1.429.751-2.143 1.119a52.396 52.396 0 0 1-12.807-5.24 53.752 53.752 0 0 1-8.19-5.759c.481-.505.949-1.01 1.416-1.529l.013-.013c0-.014.014-.027.028-.041h.014c15.036-16.597 23.34-38.142 23.305-60.468a90.57 90.57 0 0 0-4.535-28.316h-.014c0-.027-.013-.055-.013-.082h-.014a.237.237 0 0 1-.014-.068 75.672 75.672 0 0 0-.866-2.484H61.9c13.256-.018 26.039 4.889 35.837 13.756.11 1.037.192 2.074.26 3.125a85.78 85.78 0 0 1 .22 6.277Z" fill="#9087E5"/><path d="M52 49.95c0 .914-.014 1.829-.04 2.73-.014.586-.042 1.16-.07 1.746a85.486 85.486 0 0 1-.613 7c-.068.601-.15 1.188-.245 1.775-.095.723-.218 1.432-.34 2.156-.11.682-.233 1.35-.369 2.033-.027.164-.068.328-.095.491a88.225 88.225 0 0 1-2.713 10.303c-.178.56-.368 1.106-.56 1.638a.954.954 0 0 1-.068.19 52.61 52.61 0 0 1-.586 1.638c-.054.164-.123.342-.19.519-.219.587-.45 1.16-.682 1.733a49.13 49.13 0 0 1-.818 1.952c-.287.668-.587 1.337-.886 2.006-.287.614-.587 1.228-.873 1.828-.314.642-.627 1.27-.954 1.883-.328.615-.655 1.242-.996 1.856-.34.614-.681 1.228-1.022 1.829a77.793 77.793 0 0 1-2.195 3.589 85.944 85.944 0 0 1-2.331 3.466 117.745 117.745 0 0 1-2.495 3.357 104.653 104.653 0 0 1-3.981 4.749h-.014c-.014.014-.014.014-.014.027a.014.014 0 0 1-.004.01.017.017 0 0 1-.01.004c-.463.519-.94 1.037-1.417 1.542a53.09 53.09 0 0 1-5.972-6.032.234.234 0 0 0-.054-.068A52.705 52.705 0 0 1 9 71.88V19h37.587c.3.819.587 1.638.846 2.47l.013.014a.245.245 0 0 0 .014.068h.014v.04a.051.051 0 0 0 .013.042h.014a.67.67 0 0 0 .055.15l.163.532a77.516 77.516 0 0 1 1.268 4.394c.273.996.518 2.02.75 3.043.422 1.856.79 3.753 1.104 5.677.068.464.15.914.205 1.379.163 1.132.313 2.265.436 3.411.054.423.095.86.123 1.283.081.791.136 1.596.19 2.388.137 2.006.205 4.026.205 6.059Z" fill="#C4D0FB"/></g><rect x="12" width="100" height="90" rx="24" fill="#fff"/><mask id="b" style="mask-type:alpha" maskUnits="userSpaceOnUse" x="35" y="14" width="54" height="62"><path fill-rule="evenodd" clip-rule="evenodd" d="M60.388 61.576c1.87-.087 3.71-.385 5.485-.88l2.504 2.481c2.357 2.334 6.186 2.343 8.553.02a5.906 5.906 0 0 0 .02-8.435l-2.844-2.817a6.035 6.035 0 0 0-1.781-1.222c-1.868-1.327-4.504-1.153-6.631-.12a14.762 14.762 0 0 1-5.763 1.463 14.724 14.724 0 0 1-9.958-3.261 14.218 14.218 0 0 1-5.13-8.992c-.51-3.52.335-7.099 2.371-10.039a14.552 14.552 0 0 1 8.636-5.859c3.521-.83 7.231-.34 10.404 1.372a14.35 14.35 0 0 1 6.755 7.888c.629 1.803.878 3.694.753 5.563-.18 2.69.864 5.597 3.345 6.65 2.435 1.035 5.304-.078 5.86-2.664.9-4.174.645-8.54-.782-12.632-1.955-5.606-5.97-10.294-11.258-13.148a24.646 24.646 0 0 0-17.341-2.286c-5.869 1.383-11.001 4.865-14.393 9.765a23.459 23.459 0 0 0-3.951 16.732c.85 5.865 3.899 11.209 8.549 14.985 4.65 3.777 10.568 5.715 16.597 5.436Zm18.298 4.234a5.906 5.906 0 0 0-.02 8.434c2.357 2.334 6.186 2.342 8.553.019a5.906 5.906 0 0 0 .02-8.434c-2.357-2.334-6.186-2.343-8.553-.02Z" fill="#6A5AE0"/></mask><g mask="url(#b)" fill-rule="evenodd" clip-rule="evenodd" fill="#6A5AE0"><path d="m67.816 95.32 49.014-48.392-10.598-10.119-56.078 55.872 17.662 2.64Zm-9.627-12.892 47.528-45.932-10.276-9.604-54.38 53.03 17.128 2.506Z"/><path d="m43.894 80.472 55.85-55.225-9.79-10.323-55.85 55.224 9.79 10.324Z"/><path d="m33.809 71.52 55.744-55.382-14.485-6.105-49.16 48.84 7.9 12.646Z"/><path d="M25.908 59.619 76.42 10.033 49.36 12.69 25.908 37.925V59.62Z"/></g></svg>
