<svg xmlns="http://www.w3.org/2000/svg" version="1.1" xmlns:xlink="http://www.w3.org/1999/xlink" xmlns:svgjs="http://svgjs.com/svgjs" width="76.22" height="76.09"><svg id="SvgjsSvg1000" data-name="Layer 1" xmlns="http://www.w3.org/2000/svg" viewBox="0 0 76.22 76.09"><defs><style>.cls-1{fill:#fff;}.cls-2{fill:#6a5ae0;}.cls-3{fill:#fe8fa2;}.cls-4{fill:#c4d0fb;}.cls-5{fill:#9087e5;}</style></defs><path class="cls-1" d="M38.5,24.09c3.75-2.09,8.21-1.65,12.33-1.71,13.28.25,26.56-.36,39.83.29,5.39,2.08,10.38,6,12.48,11.53,1.14,4.31.62,8.83.69,13.24.07,9-.27,17.94.3,26.9a18.46,18.46,0,0,1-6.46,12c-3.87,3.45-9.21,4.43-14.25,4.38-10.58-.12-21.17,0-31.75,0-4.67,0-9.62.07-13.8-2.32a18.11,18.11,0,0,1-8.32-9.68,62.26,62.26,0,0,1-1.22-13.47c0-8.92-.12-17.85.41-26.75C28.93,32.28,33.26,27,38.5,24.09Zm9.4,18.49c-4.32,7.7-1.71,18.37,5.72,23.17C58.17,69,64,69.51,69.38,68.62c2,2.68,6.37,4.24,8.67,1.12,2.92-4-1.78-8.12-5.21-9.62-3.78-.31-7.28,2.76-11.13,1.37C55,60.26,51,52.05,54.32,46.06c3-6.19,12.1-8,17.12-3.24,3,2.32,3.93,6.11,3.84,9.71-.2,2.71,2.77,5.66,5.42,4.11,1.89-1,1.75-3.32,1.91-5.11C83,43.83,77.72,36.47,70.52,34,62.23,30.78,51.91,34.62,47.9,42.58ZM79.25,71.94a4.43,4.43,0,0,0-.44,6.52c2.38,3.1,8.17,1.07,7.91-2.88C87.22,71.72,82,69.32,79.25,71.94Z" transform="translate(-28.08 -22.36)"></path><path class="cls-2" d="M47.9,42.58c4-8,14.33-11.8,22.62-8.62,7.2,2.51,12.5,9.87,12.09,17.57-.16,1.79,0,4.16-1.91,5.11-2.65,1.55-5.62-1.4-5.42-4.11.09-3.6-.87-7.39-3.84-9.71-5-4.73-14.14-3-17.12,3.24-3.32,6,.71,14.2,7.39,15.43,3.85,1.39,7.35-1.68,11.13-1.37,3.43,1.5,8.13,5.64,5.21,9.62-2.3,3.12-6.72,1.56-8.67-1.12-5.39.89-11.21.41-15.76-2.87C46.19,61,43.58,50.28,47.9,42.58Z" transform="translate(-28.08 -22.36)"></path><path class="cls-2" d="M79.25,71.94c2.7-2.62,8-.22,7.47,3.64.26,4-5.53,6-7.91,2.88A4.43,4.43,0,0,1,79.25,71.94Z" transform="translate(-28.08 -22.36)"></path><path class="cls-3" d="M104.13,74.34c.15,3.39.45,6.85-.45,10.17a18.13,18.13,0,0,1-15.8,13.54c-3.28.25-6.58.11-9.86.13q2.83-3.63,5.4-7.45c5,0,10.38-.93,14.25-4.38A18.46,18.46,0,0,0,104.13,74.34Z" transform="translate(-28.08 -22.36)"></path><path class="cls-4" d="M28.08,76.5c.5.72,1,1.44,1.47,2.18a18.11,18.11,0,0,0,8.32,9.68c4.18,2.39,9.13,2.31,13.8,2.32-1.49,2.59-3,5.19-4.49,7.77-4.7-.63-9.65-1.62-13.09-5.18C29.28,89.13,28,82.56,28.08,76.5Z" transform="translate(-28.08 -22.36)"></path><path class="cls-5" d="M51.67,90.68c10.58,0,21.17-.07,31.75,0q-2.57,3.83-5.4,7.45c-10.28.16-20.58-.33-30.84.27C48.68,95.87,50.18,93.27,51.67,90.68Z" transform="translate(-28.08 -22.36)"></path></svg><style>@media (prefers-color-scheme: light) { :root { filter: none; } }
</style></svg>